<svg id="Capa_1" enable-background="new 0 0 512 512" height="512" viewBox="0 0 512 512" width="512" xmlns="http://www.w3.org/2000/svg"><g><path d="m465.91 338.137h-8.649v-1.244c0-5.778-1.522-11.204-4.177-15.91-8.247-45.336-32.184-86.752-67.527-116.747-36.114-30.647-82.124-47.526-129.557-47.526-45.232 0-87.919 14.71-123.444 42.542-3.261 2.554-3.833 7.269-1.279 10.529 2.554 3.261 7.268 3.832 10.529 1.279 32.86-25.742 72.348-39.349 114.194-39.349 43.882 0 86.445 15.613 119.851 43.963 27.988 23.752 48.247 55.238 58.289 90.106-2.971-.897-6.119-1.385-9.379-1.385h-3.994c-7.267-11.16-18.641-18.805-31.53-21.402-26.945-48.436-77.64-78.373-133.237-78.373-56.86 0-109.032 31.921-135.168 81.966-6.394-2.97-13.464-4.582-20.795-4.582-5.034 0-9.892.762-14.47 2.169 8.124-18.918 19.446-36.58 33.326-51.833 2.788-3.064 2.564-7.807-.499-10.595s-7.807-2.566-10.595.499c-19.434 21.354-34.23 47.085-42.876 74.484-8.784 8.911-14.217 21.134-14.217 34.606v6.803h-4.616c-25.414 0-46.09 20.677-46.09 46.091s20.676 46.09 46.09 46.09h27.569c4.142 0 7.5-3.358 7.5-7.5s-3.358-7.5-7.5-7.5h-27.569c-17.143 0-31.09-13.947-31.09-31.09s13.947-31.091 31.09-31.091h12.116c4.142 0 7.5-3.358 7.5-7.5v-14.303c0-18.93 15.401-34.331 34.331-34.331 7.122 0 13.888 2.19 19.518 6.085.083.061.17.117.256.175 4.366 3.079 8.034 7.193 10.626 12.12 1.296 2.465 3.853 4.009 6.638 4.009h8.28c9.649 0 17.5 7.851 17.5 17.5v8.744c0 4.142 3.358 7.5 7.5 7.5h16.149c17.143 0 31.09 13.947 31.09 31.091 0 17.143-13.947 31.09-31.09 31.09h-80.158c-4.142 0-7.5 3.358-7.5 7.5s3.358 7.5 7.5 7.5h80.158c25.414 0 46.09-20.676 46.09-46.09 0-17.665-9.994-33.032-24.621-40.767 5.967-21.335 25.366-36.319 48.027-36.319 22.685 0 42.064 14.976 48.027 36.318-14.626 7.734-24.621 23.102-24.621 40.767 0 25.414 20.676 46.09 46.09 46.09h140.414c25.414 0 46.09-20.676 46.09-46.09 0-25.412-20.676-46.089-46.09-46.089zm-209.91-45.994c-29.227 0-54.284 19.173-62.268 46.566-2.356-.373-4.769-.571-7.228-.571h-8.649v-1.244c0-7.085-2.286-13.643-6.149-18.989 15.215-32.815 47.824-53.785 84.294-53.785 10.007 0 19.849 1.58 29.252 4.696 3.933 1.305 8.176-.828 9.478-4.76 1.303-3.932-.828-8.175-4.76-9.478-10.929-3.622-22.358-5.458-33.971-5.458-40.956 0-77.718 22.773-96.079 58.734-4.385-2.209-9.331-3.46-14.566-3.46h-3.995c-2.283-3.506-4.973-6.664-7.985-9.43 23.311-45.954 70.814-75.344 122.626-75.344 47.133 0 90.356 23.87 115.55 63.024-10.233 1.653-19.417 6.465-26.526 13.4-6.58-9.563-14.728-18.126-23.962-25.113-3.304-2.499-8.007-1.846-10.506 1.456-2.5 3.303-1.848 8.007 1.455 10.506 9.353 7.077 17.41 16.027 23.5 26.049-3.443 6.726-5.398 14.333-5.398 22.394v6.803h-4.616c-2.458 0-4.871.198-7.226.571-7.979-27.404-33.014-46.567-62.271-46.567zm209.91 123.175h-140.414c-17.143 0-31.09-13.947-31.09-31.09s13.947-31.091 31.09-31.091h12.116c4.143 0 7.5-3.358 7.5-7.5v-14.303c0-18.93 15.4-34.331 34.331-34.331 12.788 0 24.437 7.043 30.399 18.381 1.297 2.465 3.853 4.009 6.638 4.009h8.28c9.649 0 17.5 7.851 17.5 17.5v8.744c0 4.142 3.357 7.5 7.5 7.5h16.149c17.143 0 31.09 13.947 31.09 31.091.001 17.143-13.946 31.09-31.089 31.09z"/><path d="m256 125.198c4.143 0 7.5-3.358 7.5-7.5v-28.516c0-4.142-3.357-7.5-7.5-7.5-4.142 0-7.5 3.358-7.5 7.5v28.516c0 4.142 3.358 7.5 7.5 7.5z"/><path d="m383.856 163.158c1.919 0 3.839-.732 5.304-2.197l20.164-20.164c2.929-2.929 2.929-7.678 0-10.607-2.93-2.929-7.678-2.929-10.607 0l-20.164 20.164c-2.929 2.929-2.929 7.678 0 10.606 1.465 1.465 3.385 2.198 5.303 2.198z"/><path d="m122.84 160.961c1.464 1.464 3.384 2.197 5.303 2.197s3.839-.732 5.303-2.197c2.929-2.929 2.929-7.678 0-10.606l-20.164-20.164c-2.929-2.929-7.678-2.929-10.606 0-2.929 2.929-2.929 7.678 0 10.607z"/></g></svg>