<?xml version="1.0" encoding="iso-8859-1"?>
<!-- Generator: Adobe Illustrator 19.0.0, SVG Export Plug-In . SVG Version: 6.00 Build 0)  -->
<svg version="1.1" id="Capa_1" xmlns="http://www.w3.org/2000/svg" xmlns:xlink="http://www.w3.org/1999/xlink" x="0px" y="0px"
	 viewBox="0 0 512 512" style="enable-background:new 0 0 512 512;" xml:space="preserve">
<path style="fill:#D63D76;" d="M256,81.899l225.095,348.201H512v-92.201C512,196.514,397.385,81.899,256,81.899z"/>
<path style="fill:#FF4181;" d="M256,81.899c-141.385,0-256,114.615-256,256v92.201h30.905l20.604-15.453v-76.748
	c0-112.937,91.554-204.491,204.491-204.491s204.491,91.554,204.491,204.491h20.604C481.095,196.514,380.316,81.899,256,81.899z"/>
<path style="fill:#FF6E54;" d="M256,112.805c-124.316,0-225.095,100.778-225.095,225.095v92.201h30.905l5.151-5.151v-87.05
	c0-104.403,84.636-189.038,189.038-189.038s189.038,84.636,189.038,189.038v87.05l5.151,5.151h30.905v-92.201
	C481.095,213.583,380.316,112.805,256,112.805z"/>
<path style="fill:#FFCE47;" d="M256,143.71c-107.247,0-194.189,86.941-194.189,194.189v92.201h30.905l5.151-15.453v-76.748
	c0-87.335,70.798-158.133,158.133-158.133s158.133,70.798,158.133,158.133v87.05l5.151,5.151h30.905v-92.201
	C450.189,230.651,363.247,143.71,256,143.71z"/>
<path style="fill:#85C250;" d="M256,174.616c-90.179,0-163.284,73.105-163.284,163.284v92.201h30.905l5.151-5.151v-87.05
	c0-70.266,56.962-127.227,127.227-127.227s127.227,56.962,127.227,127.227v87.05l5.151,5.151h30.905v-92.201
	C419.284,247.72,346.179,174.616,256,174.616z"/>
<path style="fill:#7ACBFF;" d="M256,205.521c-73.111,0-132.378,59.267-132.378,132.378v92.201h30.905l5.151-5.151v-87.05
	c0-53.198,43.125-96.322,96.322-96.322s96.322,43.124,96.322,96.322v87.05l5.151,5.151h30.905v-92.201
	C388.378,264.788,329.111,205.521,256,205.521z"/>
<path style="fill:#AB62FF;" d="M256,236.427c-56.042,0-101.473,45.431-101.473,101.473v92.201h30.905v-92.201
	c0-38.973,31.594-70.567,70.567-70.567s70.567,31.595,70.567,70.567v92.201h30.905v-92.201
	C357.473,281.858,312.042,236.427,256,236.427z"/>
<g>
</g>
<g>
</g>
<g>
</g>
<g>
</g>
<g>
</g>
<g>
</g>
<g>
</g>
<g>
</g>
<g>
</g>
<g>
</g>
<g>
</g>
<g>
</g>
<g>
</g>
<g>
</g>
<g>
</g>
</svg>
